# xmcd
#
# Track frame offsets:
#	150
#	16861
#	29510
#	46080
#	61079
#	77572
#	98795
#
# Disc length: 1542 seconds
# Revision: 0
# Processed by: cddbd v1.5.2PL0 Copyright (c) Steve Scherf et al.
# Submitted via: dBpowerAMP V12.0
#
DISCID=45060407
DTITLE=Smooth Gentlemen - Smooth Gentlemen
DYEAR=2017
DGENRE=
TTITLE0=North Country Fair
TTITLE1=Call A Doctor
TTITLE2=Crawling Kingsnake
TTITLE3=Overdrunk Love
TTITLE4=Sensitive Kind
TTITLE5=How Long
TTITLE6=Walking Man
EXTD=
EXTT0=
EXTT1=
EXTT2=
EXTT3=
EXTT4=
EXTT5=
EXTT6=
PLAYORDER=
